<svg width="100" height="101" viewBox="0 0 100 101" fill="none" xmlns="http://www.w3.org/2000/svg">
<g clip-path="url(#clip0_407_1575)">
<path d="M90.2344 0.5H9.76562C4.37222 0.5 0 4.87222 0 10.2656V90.7344C0 96.1278 4.37222 100.5 9.76562 100.5H90.2344C95.6278 100.5 100 96.1278 100 90.7344V10.2656C100 4.87222 95.6278 0.5 90.2344 0.5Z" fill="#3178C6"/>
<path d="M90.2344 0.5H9.76562C4.37222 0.5 0 4.87222 0 10.2656V90.7344C0 96.1278 4.37222 100.5 9.76562 100.5H90.2344C95.6278 100.5 100 96.1278 100 90.7344V10.2656C100 4.87222 95.6278 0.5 90.2344 0.5Z" fill="#3178C6"/>
<path fill-rule="evenodd" clip-rule="evenodd" d="M61.9021 80.075V89.8525C63.4916 90.6674 65.3715 91.2783 67.5418 91.6857C69.7121 92.0932 71.9994 92.2969 74.4041 92.2969C76.7477 92.2969 78.9738 92.0729 81.083 91.6246C83.1922 91.1766 85.0416 90.4381 86.6311 89.4094C88.2205 88.3809 89.4789 87.0363 90.4061 85.3762C91.3332 83.716 91.7969 81.6639 91.7969 79.2195C91.7969 77.4473 91.532 75.8941 91.0022 74.56C90.4723 73.2258 89.7082 72.0393 88.7096 71.0004C87.7111 69.9615 86.5139 69.0295 85.118 68.2045C83.7221 67.3795 82.1479 66.6004 80.3953 65.8672C79.1115 65.3375 77.9602 64.8232 76.9412 64.3242C75.9223 63.825 75.0562 63.3158 74.343 62.7965C73.6297 62.277 73.0795 61.727 72.6924 61.1465C72.3053 60.5658 72.1115 59.909 72.1115 59.1756C72.1115 58.5035 72.2848 57.8975 72.6313 57.3576C72.9777 56.8178 73.4668 56.3545 74.0984 55.9674C74.7303 55.5805 75.5045 55.2799 76.4215 55.066C77.3387 54.8521 78.3574 54.7453 79.4783 54.7453C80.2934 54.7453 81.1543 54.8064 82.0611 54.9285C82.968 55.0508 83.8799 55.2393 84.7971 55.4937C85.7141 55.7484 86.6055 56.0693 87.4717 56.4563C88.3377 56.8434 89.1375 57.2914 89.8711 57.8008V48.6648C88.3836 48.0945 86.7584 47.6719 84.9957 47.3969C83.233 47.1219 81.2104 46.9844 78.9281 46.9844C76.6049 46.9844 74.4041 47.234 72.3256 47.733C70.2471 48.232 68.4182 49.0111 66.8387 50.0703C65.2594 51.1297 64.0113 52.4791 63.0943 54.1189C62.1773 55.7586 61.7188 57.7191 61.7188 60.0006C61.7188 62.9135 62.5594 65.3986 64.2406 67.4561C65.9217 69.5133 68.474 71.2549 71.8977 72.6809C73.2426 73.2309 74.4959 73.7705 75.6574 74.3002C76.8189 74.8299 77.8227 75.3799 78.6682 75.9502C79.5139 76.5205 80.1812 77.1418 80.6705 77.8141C81.1596 78.4861 81.4041 79.25 81.4041 80.1057C81.4041 80.7371 81.2512 81.3227 80.9455 81.8625C80.6398 82.4023 80.1762 82.8707 79.5547 83.268C78.9332 83.6652 78.1588 83.9758 77.2316 84.1998C76.3043 84.424 75.2193 84.5359 73.9762 84.5359C71.8568 84.5359 69.758 84.1643 67.6793 83.4207C65.6008 82.6773 63.675 81.5621 61.9021 80.075ZM45.4648 55.9848H58.0078V47.9609H23.0469V55.9848H35.5285V91.7109H45.4648V55.9848Z" fill="white"/>
</g>
<defs>
<clipPath id="clip0_407_1575">
<rect y="0.5" width="100" height="100" rx="50" fill="white"/>
</clipPath>
</defs>
</svg>
